<?xml version="1.0" encoding="utf-8"?>
<!-- Generator: Adobe Illustrator 22.0.1, SVG Export Plug-In . SVG Version: 6.00 Build 0)  -->
<svg version="1.1" id="Layer_1" xmlns="http://www.w3.org/2000/svg" xmlns:xlink="http://www.w3.org/1999/xlink" x="0px" y="0px"
	viewBox="0 0 592.8 160.9" style="enable-background:new 0 0 592.8 160.9;" xml:space="preserve">
	<style type="text/css">
		.dark{fill:#434345;}
		.bluelt{fill:#8CC6EB;}
		.ccblue{fill:#006BB5;}
	</style>
	<g>
		<g>
			<path class="dark" d="M246.3,144.9h-12l-2.4,6.2h-3.3l10.1-25.5h3.3l10,25.5h-3.5L246.3,144.9z M235.3,142.4h10.2l-5.1-13.8
				L235.3,142.4z"/>
				<path class="dark" d="M260.8,148.7l1.6-2c1,0.8,2.1,1.4,3.2,1.8c1.1,0.4,2.4,0.5,3.7,0.5c1.7,0,3.1-0.4,4.2-1.2
					c1.1-0.8,1.6-2,1.6-3.5c0-1.1-0.3-2-0.8-2.6c-0.5-0.7-1.2-1.2-2.1-1.6s-2.1-0.8-3.5-1.2c-2.4-0.6-4.2-1.5-5.3-2.5
					c-1.2-1.1-1.8-2.6-1.8-4.5c0-2.1,0.8-3.8,2.4-5c1.6-1.2,3.6-1.8,6.1-1.8c1.6,0,3,0.2,4.2,0.6c1.3,0.4,2.4,1,3.5,1.8l-1.4,2.1
					c-1-0.6-2-1.1-3-1.4c-1-0.3-2.1-0.5-3.3-0.5c-1.6,0-2.9,0.3-3.9,1c-1,0.7-1.5,1.7-1.5,3c0,1.3,0.4,2.3,1.3,2.9s2.4,1.3,4.4,1.8
					c2.6,0.7,4.5,1.6,5.8,2.7c1.3,1.2,2,2.9,2,5.1c0,1.6-0.4,3-1.2,4.1c-0.8,1.1-1.9,2-3.3,2.5c-1.4,0.6-2.9,0.8-4.6,0.8
					C266.1,151.7,263.2,150.7,260.8,148.7z"/>
					<path class="dark" d="M280.5,146.1c0-2.4,0.9-4,2.6-5s4.3-1.4,7.8-1.4c0.8,0,1.5,0,1.9,0v-1c0-1.4-0.4-2.4-1.1-3.1
						c-0.7-0.7-1.9-1-3.4-1c-1.9,0-3.8,0.5-5.5,1.5l-1.1-2.1c2.1-1.3,4.3-1.9,6.8-1.9c2.6,0,4.4,0.6,5.6,1.8c1.2,1.2,1.8,3,1.8,5.5v7.5
						c0,1.3,0.1,2.7,0.3,4.1h-2.8c-0.2-1.1-0.3-1.9-0.3-2.5h-0.1c-0.7,1-1.5,1.7-2.5,2.2c-1,0.5-2.3,0.8-3.9,0.8
						c-1.8,0-3.2-0.5-4.3-1.4S280.5,147.8,280.5,146.1z M292.8,144.3v-2.4l-1.6,0c-1.8,0-3.2,0.1-4.3,0.4c-1.1,0.2-1.9,0.6-2.4,1.2
						c-0.5,0.6-0.8,1.4-0.8,2.4c0,1.1,0.3,1.9,0.9,2.4c0.6,0.6,1.5,0.8,2.6,0.8c1.2,0,2.1-0.2,3-0.7c0.8-0.5,1.5-1.1,1.9-1.9
						C292.5,145.8,292.8,145.1,292.8,144.3z"/>
						<path class="dark" d="M303.2,125.6v25.5h-3.1v-25.5H303.2z"/>
						<path class="dark" d="M323.5,143h-13.6c0.1,1.9,0.7,3.4,1.7,4.5c1,1.1,2.4,1.7,4.3,1.7c1.1,0,2.1-0.1,3-0.4s1.8-0.8,2.6-1.4l1.4,2
							c-1,0.7-2.1,1.3-3.3,1.7s-2.5,0.6-3.9,0.6c-2.8,0-5-0.9-6.6-2.7c-1.6-1.8-2.4-4.1-2.4-7.1c0-1.9,0.3-3.6,1-5
							c0.7-1.4,1.7-2.6,2.9-3.4c1.3-0.8,2.8-1.2,4.6-1.2c2.7,0,4.7,0.9,6.1,2.6c1.4,1.7,2.1,4,2.1,6.9
							C323.5,142.3,323.5,142.7,323.5,143z M320.6,140.6c0-1.8-0.5-3.3-1.4-4.4c-0.9-1.1-2.2-1.7-3.9-1.7c-1.7,0-3,0.6-4,1.7
							c-0.9,1.1-1.4,2.6-1.5,4.3H320.6z"/>
							<path class="dark" d="M338.4,134.2l-1.4,1.9c-1.4-1-3-1.5-4.6-1.5c-1.2,0-2.1,0.2-2.7,0.7c-0.6,0.4-1,1.1-1,1.9
								c0,0.6,0.1,1.1,0.4,1.5c0.3,0.4,0.7,0.7,1.3,1c0.6,0.3,1.5,0.5,2.7,0.8c1.9,0.5,3.3,1.1,4.2,2c0.9,0.9,1.3,2,1.3,3.4
								c0,1.8-0.7,3.2-2,4.2c-1.3,1-3,1.5-5,1.5c-2.6,0-4.8-0.7-6.6-2.1l1.4-1.9c0.8,0.6,1.6,1,2.4,1.2s1.7,0.4,2.7,0.4
								c1.2,0,2.2-0.3,2.9-0.8c0.7-0.5,1.1-1.3,1.1-2.3c0-0.6-0.1-1.2-0.4-1.6c-0.3-0.4-0.7-0.7-1.3-1c-0.6-0.3-1.5-0.6-2.8-0.9
								c-1.9-0.5-3.3-1.1-4.1-1.9c-0.9-0.8-1.3-1.9-1.3-3.4c0-1.6,0.6-2.8,1.8-3.7c1.2-0.9,2.8-1.4,4.8-1.4
								C334.7,132.2,336.7,132.9,338.4,134.2z"/>
								<path class="dark" d="M352.7,125.5l-0.7,2.2c-0.8-0.2-1.5-0.2-2.2-0.2c-2.3,0-3.4,1.3-3.4,3.7v1.5h4.6v2.3h-4.6v16h-3.1v-16h-3.2
									v-1.9l3.2-0.4v-1.6c0-1.9,0.5-3.4,1.5-4.5c1-1,2.6-1.6,4.6-1.6C350.7,125.1,351.8,125.2,352.7,125.5z"/>
									<path class="dark" d="M370.2,141.8c0,1.9-0.4,3.6-1.1,5.1c-0.7,1.5-1.8,2.6-3.2,3.4s-3,1.2-4.9,1.2c-1.9,0-3.5-0.4-4.9-1.2
										s-2.4-2-3.2-3.4s-1.1-3.1-1.1-5c0-2.9,0.8-5.3,2.4-7c1.6-1.7,3.9-2.6,6.8-2.6c1.9,0,3.6,0.4,5,1.2c1.4,0.8,2.4,1.9,3.2,3.4
										C369.9,138.2,370.2,139.9,370.2,141.8z M355,141.8c0,2.2,0.5,3.9,1.5,5.3s2.5,2,4.5,2c2,0,3.6-0.7,4.6-2s1.5-3.1,1.5-5.3
										s-0.5-3.9-1.5-5.2c-1-1.3-2.5-1.9-4.6-1.9c-2,0-3.6,0.6-4.5,1.9C355.5,137.9,355,139.7,355,141.8z"/>
										<path class="dark" d="M373.6,136.8c0-1.3-0.1-2.7-0.3-4.1h2.9c0.1,0.8,0.2,1.8,0.3,2.9h0.1c1.1-2.3,3-3.4,5.8-3.4
											c0.2,0,0.5,0,1,0.1l-0.2,2.6c-0.2,0-0.6-0.1-1.1-0.1c-1.8,0-3.1,0.6-4,1.8c-0.9,1.2-1.4,2.7-1.4,4.6v9.8h-3.1V136.8z"/>
											<path class="dark" d="M393.1,132.2c1.2,0,2.2,0.2,3.3,0.5s2,0.8,2.8,1.5l-1.2,2.1c-1.4-1-3-1.5-4.9-1.5c-2,0-3.5,0.6-4.5,1.9
												s-1.5,3-1.5,5.2c0,2.1,0.5,3.8,1.5,5.1c1,1.3,2.5,2,4.4,2c1.7,0,3.3-0.5,4.9-1.5l1.1,2.2c-1.8,1.3-3.9,2-6.3,2
												c-2.1,0-3.8-0.5-5.1-1.4c-1.3-0.9-2.3-2.1-2.9-3.6s-0.9-3-0.9-4.7c0-2.9,0.8-5.3,2.4-7C388,133.1,390.3,132.2,393.1,132.2z"/>
												<path class="dark" d="M416.9,143h-13.6c0.1,1.9,0.7,3.4,1.7,4.5c1,1.1,2.4,1.7,4.3,1.7c1.1,0,2.1-0.1,3-0.4s1.8-0.8,2.6-1.4l1.4,2
													c-1,0.7-2.1,1.3-3.3,1.7s-2.5,0.6-3.9,0.6c-2.8,0-5-0.9-6.6-2.7c-1.6-1.8-2.4-4.1-2.4-7.1c0-1.9,0.3-3.6,1-5
													c0.7-1.4,1.7-2.6,2.9-3.4c1.3-0.8,2.8-1.2,4.6-1.2c2.7,0,4.7,0.9,6.1,2.6c1.4,1.7,2.1,4,2.1,6.9C417,142.3,417,142.7,416.9,143z
													M414,140.6c0-1.8-0.5-3.3-1.4-4.4c-0.9-1.1-2.2-1.7-3.9-1.7c-1.7,0-3,0.6-4,1.7c-0.9,1.1-1.4,2.6-1.5,4.3H414z"/>
													<path class="dark" d="M449.3,128.1l-1.9,2.1c-0.9-0.8-1.9-1.4-3-1.8c-1.1-0.4-2.3-0.6-3.6-0.6c-3.1,0-5.5,1-7.1,2.9
														c-1.6,1.9-2.4,4.5-2.4,7.7c0,3.2,0.8,5.7,2.4,7.7c1.6,1.9,3.9,2.9,7,2.9c1.4,0,2.7-0.3,3.9-0.8c1.2-0.5,2.3-1.2,3.2-2.1l1.9,2.1
														c-1.1,1.1-2.4,2-4,2.6c-1.6,0.6-3.3,1-5.1,1c-2.7,0-4.9-0.6-6.8-1.7s-3.3-2.7-4.3-4.7c-1-2-1.5-4.3-1.5-7c0-2.6,0.5-5,1.5-7
														c1-2,2.4-3.6,4.3-4.7c1.9-1.1,4.2-1.7,6.9-1.7c1.7,0,3.3,0.3,4.8,0.8C446.9,126.3,448.2,127.1,449.3,128.1z"/>
														<path class="dark" d="M469.3,141.8c0,1.9-0.4,3.6-1.1,5.1c-0.7,1.5-1.8,2.6-3.2,3.4s-3,1.2-4.9,1.2c-1.9,0-3.5-0.4-4.9-1.2
															s-2.4-2-3.2-3.4s-1.1-3.1-1.1-5c0-2.9,0.8-5.3,2.4-7c1.6-1.7,3.9-2.6,6.8-2.6c1.9,0,3.6,0.4,5,1.2c1.4,0.8,2.4,1.9,3.2,3.4
															C468.9,138.2,469.3,139.9,469.3,141.8z M454,141.8c0,2.2,0.5,3.9,1.5,5.3s2.5,2,4.5,2c2,0,3.6-0.7,4.6-2s1.5-3.1,1.5-5.3
															s-0.5-3.9-1.5-5.2c-1-1.3-2.5-1.9-4.6-1.9c-2,0-3.6,0.6-4.5,1.9C454.5,137.9,454,139.7,454,141.8z"/>
															<path class="dark" d="M472.7,136.8c0-1.3-0.1-2.7-0.3-4.1h2.9c0.1,0.6,0.2,1.5,0.3,2.6h0.1c0.6-0.9,1.4-1.7,2.4-2.2
																s2.2-0.9,3.6-0.9c1.6,0,2.8,0.3,3.8,1c1,0.7,1.7,1.6,2.2,2.7h0.1c0.6-1.2,1.5-2.1,2.6-2.7s2.4-1,3.9-1s2.8,0.3,3.8,1
																s1.8,1.5,2.2,2.6c0.5,1.1,0.7,2.2,0.7,3.5v11.7h-3.1v-11.3c0-1.4-0.3-2.6-1-3.6c-0.7-1-1.8-1.4-3.3-1.4c-1.1,0-2.1,0.3-2.8,0.9
																c-0.8,0.6-1.4,1.3-1.8,2.3s-0.6,2-0.6,3.1v10h-3.1v-11.4c0-1.4-0.3-2.6-1-3.5c-0.7-0.9-1.8-1.4-3.3-1.4c-1.6,0-2.8,0.6-3.8,1.7
																c-0.9,1.1-1.4,2.5-1.4,4.1v10.5h-3.1V136.8z"/>
																<path class="dark" d="M522.8,141.9c0,1.8-0.3,3.5-1,4.9s-1.7,2.6-2.9,3.5s-2.8,1.3-4.5,1.3c-2.3,0-4.3-0.8-6-2.3v10.5h-3.1v-23
																	c0-1.3-0.1-2.7-0.3-4.1h2.9c0.1,0.8,0.2,1.7,0.3,2.8h0.1c0.6-1,1.4-1.8,2.5-2.4c1.1-0.6,2.4-0.9,4-0.9c1.8,0,3.2,0.4,4.4,1.3
																	c1.2,0.9,2.1,2,2.7,3.5S522.8,140.1,522.8,141.9z M519.6,141.9c0-2.2-0.5-4-1.5-5.3c-1-1.3-2.3-1.9-4-1.9c-1.1,0-2.1,0.3-3,0.8
																	c-0.9,0.5-1.6,1.2-2.1,2.2c-0.5,0.9-0.7,1.9-0.7,3v6.1c0.8,0.8,1.7,1.5,2.5,1.8s1.8,0.6,2.9,0.6c1.9,0,3.4-0.7,4.4-2
																	S519.6,144,519.6,141.9z"/>
																	<path class="dark" d="M524.9,146.1c0-2.4,0.9-4,2.6-5s4.3-1.4,7.8-1.4c0.8,0,1.5,0,1.9,0v-1c0-1.4-0.4-2.4-1.1-3.1
																		c-0.7-0.7-1.9-1-3.4-1c-1.9,0-3.8,0.5-5.5,1.5l-1.1-2.1c2.1-1.3,4.3-1.9,6.8-1.9c2.6,0,4.4,0.6,5.6,1.8c1.2,1.2,1.8,3,1.8,5.5v7.5
																		c0,1.3,0.1,2.7,0.3,4.1h-2.8c-0.2-1.1-0.3-1.9-0.3-2.5h-0.1c-0.7,1-1.5,1.7-2.5,2.2c-1,0.5-2.3,0.8-3.9,0.8
																		c-1.8,0-3.2-0.5-4.3-1.4S524.9,147.8,524.9,146.1z M537.1,144.3v-2.4l-1.6,0c-1.8,0-3.2,0.1-4.3,0.4c-1.1,0.2-1.9,0.6-2.4,1.2
																		c-0.5,0.6-0.8,1.4-0.8,2.4c0,1.1,0.3,1.9,0.9,2.4c0.6,0.6,1.5,0.8,2.6,0.8c1.2,0,2.1-0.2,3-0.7c0.8-0.5,1.5-1.1,1.9-1.9
																		C536.9,145.8,537.1,145.1,537.1,144.3z"/>
																		<path class="dark" d="M544.5,136.8c0-1.3-0.1-2.7-0.3-4.1h2.9c0.1,0.6,0.2,1.5,0.3,2.6h0.1c0.6-0.9,1.4-1.7,2.5-2.2
																			c1.1-0.6,2.4-0.8,3.9-0.8c2.3,0,4,0.7,5.1,2s1.7,3,1.7,5v11.8h-3.1v-11.2c0-1.5-0.4-2.7-1.1-3.6s-1.9-1.4-3.5-1.4
																			c-1.7,0-3,0.5-4,1.6c-1,1.1-1.5,2.5-1.5,4.1v10.5h-3.1V136.8z"/>
																			<path class="dark" d="M570.7,155.5c-0.6,1.7-1.3,2.9-2.2,3.6c-0.9,0.8-2.1,1.2-3.5,1.2c-0.9,0-1.8-0.1-2.6-0.4l0.6-2.3
																				c0.5,0.1,1,0.2,1.5,0.2c0.9,0,1.6-0.3,2.1-0.8c0.5-0.5,0.9-1.3,1.3-2.3l1.3-3.6l-7.1-18.4h3.3l5.3,15.1h0.1l4.9-15.1h3.1
																				L570.7,155.5z"/>
																			</g>
																			<g>
																				<g>
																					<path class="dark" d="M181.1,96.2c-13.2,0-23.4-9.8-23.4-22.6c0-12.5,10.1-22.4,23-22.4c9.7,0,17.9,5.4,21.4,14.1h-6.5
																						c-3.3-5.7-8.6-8.7-14.9-8.7c-9.6,0-17.1,7.5-17.1,17.2c0,9.5,7.6,17.1,17.3,17.1c6.1,0,10.2-2.4,14.7-8.3h6.6
																						C196.9,92.4,189.9,96.2,181.1,96.2z"/>
																						<path class="dark" d="M210.1,95.2V37.1h5.8v58.1H210.1z"/>
																						<path class="dark" d="M247.2,96.2c-13.4,0-23-9.6-23-22.8c0-12.6,9.8-22.2,22.6-22.2c12.9,0,22.3,9.5,22.3,22.6
																							C269.1,86.7,259.8,96.2,247.2,96.2z M246.8,56.5c-9.5,0-16.7,7.3-16.7,17.1c0,10.1,7.1,17.3,17,17.3c9.4,0,16.1-7.2,16.1-17
																							C263.2,63.9,256.2,56.5,246.8,56.5z"/>
																							<path class="dark" d="M309.4,95.2v-6.7c-2.9,5.3-7.2,7.7-13.8,7.7c-10.9,0-18.2-5.8-18.2-20.8V52.2h5.8v23.2
																								c0,10.9,4.6,15.5,12.9,15.5c7.9,0,13.4-4.9,13.4-16.6V52.2h5.8v43H309.4z"/>
																								<path class="dark" d="M361.5,95.2v-7.8c-4.3,6.2-9.2,8.8-16.4,8.8c-13.3,0-23.4-9.7-23.4-22.5c0-12.8,9.9-22.6,22.9-22.6
																									c6.8,0,12.7,2.8,16.9,7.9V37.1h5.8v58.1H361.5z M344.4,56.5c-9.4,0-16.8,7.5-16.8,17c0,9.8,7.5,17.4,17.4,17.4
																									c9.2,0,16.7-7.9,16.7-17.3C361.7,64.1,354,56.5,344.4,56.5z"/>
																									<path class="dark" d="M397.9,95.6c-13.2,0-23.4-9.8-23.4-22.6c0-12.5,10.1-22.4,23-22.4c9.7,0,17.9,5.4,21.4,14.1h-6.5
																										c-3.3-5.7-8.6-8.7-14.9-8.7c-9.6,0-17.1,7.5-17.1,17.2c0,9.5,7.6,17.1,17.3,17.1c6.1,0,10.2-2.4,14.7-8.3h6.6
																										C413.8,91.8,406.8,95.6,397.9,95.6z"/>
																										<path class="dark" d="M433.4,70.1v25.1h-5.8v-43h5.8v6.1c2.3-4.7,6-6.8,12.2-7.2v5.7C437.4,57.7,433.4,62.1,433.4,70.1z"/>
																										<path class="dark" d="M487.5,95.2v-7.5c-4.6,6.1-9.3,8.6-16.6,8.6c-13.2,0-23-9.6-23-22.4c0-12.9,9.7-22.6,22.6-22.6
																											c7.5,0,12.7,2.7,17,8.6v-7.6h5.8v43H487.5z M470.6,56.5c-9.4,0-16.9,7.5-16.9,16.9c0,9.8,7.5,17.5,17.2,17.5
																											c9.3,0,16.5-7.6,16.5-17.4C487.5,63.9,480.1,56.5,470.6,56.5z"/>
																											<path class="dark" d="M501.7,95.2v-5.3l23.7-32.5h-23v-5.3H532v5l-23.5,32.8h25v5.3H501.7z"/>
																											<path class="dark" d="M543.4,75.6c0.5,8.5,7.9,15.3,16.7,15.3c6.5,0,12.6-3.9,15-9.8h6.1c-2.8,8.2-11.2,15.2-20.9,15.2
																												c-12.7,0-22.7-10-22.7-22.7c0-12.5,9.8-22.3,22.3-22.3c12.7,0,22.4,9.2,22.4,24.5H543.4z M559.8,56.5c-8.2,0-14.7,5.6-16.3,13.8
																												h32.9C574.5,61.8,568.2,56.5,559.8,56.5z"/>
																											</g>
																											<g>
																												<path class="bluelt" d="M104.8,19.8c11.4-2.9,27-3.5,34.1,5.7c6.1,7.9,7,25.6-14.5,28.1c-33,3.9-42.6,11.6-44.8,25.3
																													c0,0-9.1-18.3-8.6-21C71.6,54.2,71.6,28.1,104.8,19.8z"/>
																													<path class="ccblue" d="M86.2,122.9c9.6,7.2,20.8,11.2,31.1,8.5c10.7-2.8,23.2-24.5,4.2-36.3C91.5,76.7,77.3,61.6,82.1,31.9
																														c0,0-11.8,11.2-16.3,32.9C65.1,68.4,58.7,102.1,86.2,122.9z"/>
																														<g>
																															<path class="bluelt" d="M50.5,8.2c-7.1-5.9-18-11.6-26.1-7.4c-7,3.6-13.6,15.8,0.9,24.9c22.1,13.8,26.4,22.5,23.3,33
																																c0,0,12.6-9.9,13.2-12.1C62.5,43.8,71.2,25.3,50.5,8.2z"/>
																																<path class="ccblue" d="M29.1,87.7c-9.2,1.9-18.5,1-25-4.4c-6.7-5.6-8.3-25.2,9.2-27.2c27.6-3.1,42.8-9,49.3-31.7
																																	c0,0,4.7,11.9,0.5,28.9C62.4,56.1,55.6,82.2,29.1,87.7z"/>
																																</g>
																															</g>
																														</g>
																														<g>
																															<path class="dark" d="M585,57.3h-0.7v-4.6H583v-0.6h3.3v0.6H585V57.3z"/>
																															<path class="dark" d="M587.7,57.3H587v-5.2h0.6l1.9,3.9l1.9-3.9h0.6v5.2h-0.7v-3.8l-1.9,3.8l-1.9-3.9V57.3z"/>
																														</g>
																													</g>
																												</svg>
