<?xml version="1.0" encoding="utf-8"?>
<!-- Generator: Adobe Illustrator 22.0.1, SVG Export Plug-In . SVG Version: 6.00 Build 0)  -->
<svg version="1.1" id="Layer_1" xmlns="http://www.w3.org/2000/svg" xmlns:xlink="http://www.w3.org/1999/xlink" x="0px" y="0px"
	 viewBox="0 0 592.8 160.9" style="enable-background:new 0 0 592.8 160.9;" xml:space="preserve">
<style type="text/css">
	.st0{fill:#FFFFFF;}
</style>
<g>
	<g>
		<path class="st0" d="M248.3,146.9h-12l-2.4,6.2h-3.3l10.1-25.5h3.3l10,25.5h-3.5L248.3,146.9z M237.3,144.4h10.2l-5.1-13.8
			L237.3,144.4z"/>
		<path class="st0" d="M262.8,150.7l1.6-2c1,0.8,2.1,1.4,3.2,1.8c1.1,0.4,2.4,0.5,3.7,0.5c1.7,0,3.1-0.4,4.2-1.2
			c1.1-0.8,1.6-2,1.6-3.5c0-1.1-0.3-2-0.8-2.6c-0.5-0.7-1.2-1.2-2.1-1.6s-2.1-0.8-3.5-1.2c-2.4-0.6-4.2-1.5-5.3-2.5
			c-1.2-1.1-1.8-2.6-1.8-4.5c0-2.1,0.8-3.8,2.4-5c1.6-1.2,3.6-1.8,6.1-1.8c1.6,0,3,0.2,4.2,0.6c1.3,0.4,2.4,1,3.5,1.8l-1.4,2.1
			c-1-0.6-2-1.1-3-1.4c-1-0.3-2.1-0.5-3.3-0.5c-1.6,0-2.9,0.3-3.9,1c-1,0.7-1.5,1.7-1.5,3c0,1.3,0.4,2.3,1.3,2.9s2.4,1.3,4.4,1.8
			c2.6,0.7,4.5,1.6,5.8,2.7c1.3,1.2,2,2.9,2,5.1c0,1.6-0.4,3-1.2,4.1c-0.8,1.1-1.9,2-3.3,2.5c-1.4,0.6-2.9,0.8-4.6,0.8
			C268.1,153.7,265.2,152.7,262.8,150.7z"/>
		<path class="st0" d="M282.5,148.1c0-2.4,0.9-4,2.6-5s4.3-1.4,7.8-1.4c0.8,0,1.5,0,1.9,0v-1c0-1.4-0.4-2.4-1.1-3.1
			c-0.7-0.7-1.9-1-3.4-1c-1.9,0-3.8,0.5-5.5,1.5l-1.1-2.1c2.1-1.3,4.3-1.9,6.8-1.9c2.6,0,4.4,0.6,5.6,1.8c1.2,1.2,1.8,3,1.8,5.5v7.5
			c0,1.3,0.1,2.7,0.3,4.1h-2.8c-0.2-1.1-0.3-1.9-0.3-2.5h-0.1c-0.7,1-1.5,1.7-2.5,2.2c-1,0.5-2.3,0.8-3.9,0.8
			c-1.8,0-3.2-0.5-4.3-1.4S282.5,149.8,282.5,148.1z M294.8,146.3v-2.4l-1.6,0c-1.8,0-3.2,0.1-4.3,0.4c-1.1,0.2-1.9,0.6-2.4,1.2
			c-0.5,0.6-0.8,1.4-0.8,2.4c0,1.1,0.3,1.9,0.9,2.4c0.6,0.6,1.5,0.8,2.6,0.8c1.2,0,2.1-0.2,3-0.7c0.8-0.5,1.5-1.1,1.9-1.9
			C294.5,147.8,294.8,147.1,294.8,146.3z"/>
		<path class="st0" d="M305.2,127.6v25.5h-3.1v-25.5H305.2z"/>
		<path class="st0" d="M325.5,145h-13.6c0.1,1.9,0.7,3.4,1.7,4.5c1,1.1,2.4,1.7,4.3,1.7c1.1,0,2.1-0.1,3-0.4s1.8-0.8,2.6-1.4l1.4,2
			c-1,0.7-2.1,1.3-3.3,1.7s-2.5,0.6-3.9,0.6c-2.8,0-5-0.9-6.6-2.7c-1.6-1.8-2.4-4.1-2.4-7.1c0-1.9,0.3-3.6,1-5
			c0.7-1.4,1.7-2.6,2.9-3.4c1.3-0.8,2.8-1.2,4.6-1.2c2.7,0,4.7,0.9,6.1,2.6c1.4,1.7,2.1,4,2.1,6.9
			C325.5,144.3,325.5,144.7,325.5,145z M322.6,142.6c0-1.8-0.5-3.3-1.4-4.4c-0.9-1.1-2.2-1.7-3.9-1.7c-1.7,0-3,0.6-4,1.7
			c-0.9,1.1-1.4,2.6-1.5,4.3H322.6z"/>
		<path class="st0" d="M340.4,136.2l-1.4,1.9c-1.4-1-3-1.5-4.6-1.5c-1.2,0-2.1,0.2-2.7,0.7c-0.6,0.4-1,1.1-1,1.9
			c0,0.6,0.1,1.1,0.4,1.5c0.3,0.4,0.7,0.7,1.3,1c0.6,0.3,1.5,0.5,2.7,0.8c1.9,0.5,3.3,1.1,4.2,2c0.9,0.9,1.3,2,1.3,3.4
			c0,1.8-0.7,3.2-2,4.2c-1.3,1-3,1.5-5,1.5c-2.6,0-4.8-0.7-6.6-2.1l1.4-1.9c0.8,0.6,1.6,1,2.4,1.2s1.7,0.4,2.7,0.4
			c1.2,0,2.2-0.3,2.9-0.8c0.7-0.5,1.1-1.3,1.1-2.3c0-0.6-0.1-1.2-0.4-1.6c-0.3-0.4-0.7-0.7-1.3-1c-0.6-0.3-1.5-0.6-2.8-0.9
			c-1.9-0.5-3.3-1.1-4.1-1.9c-0.9-0.8-1.3-1.9-1.3-3.4c0-1.6,0.6-2.8,1.8-3.7c1.2-0.9,2.8-1.4,4.8-1.4
			C336.7,134.2,338.7,134.9,340.4,136.2z"/>
		<path class="st0" d="M354.7,127.5l-0.7,2.2c-0.8-0.2-1.5-0.2-2.2-0.2c-2.3,0-3.4,1.3-3.4,3.7v1.5h4.6v2.3h-4.6v16h-3.1v-16h-3.2
			v-1.9l3.2-0.4v-1.6c0-1.9,0.5-3.4,1.5-4.5c1-1,2.6-1.6,4.6-1.6C352.7,127.1,353.8,127.2,354.7,127.5z"/>
		<path class="st0" d="M372.2,143.8c0,1.9-0.4,3.6-1.1,5.1c-0.7,1.5-1.8,2.6-3.2,3.4s-3,1.2-4.9,1.2c-1.9,0-3.5-0.4-4.9-1.2
			s-2.4-2-3.2-3.4s-1.1-3.1-1.1-5c0-2.9,0.8-5.3,2.4-7c1.6-1.7,3.9-2.6,6.8-2.6c1.9,0,3.6,0.4,5,1.2c1.4,0.8,2.4,1.9,3.2,3.4
			C371.9,140.2,372.2,141.9,372.2,143.8z M357,143.8c0,2.2,0.5,3.9,1.5,5.3s2.5,2,4.5,2c2,0,3.6-0.7,4.6-2s1.5-3.1,1.5-5.3
			s-0.5-3.9-1.5-5.2c-1-1.3-2.5-1.9-4.6-1.9c-2,0-3.6,0.6-4.5,1.9C357.5,139.9,357,141.7,357,143.8z"/>
		<path class="st0" d="M375.6,138.8c0-1.3-0.1-2.7-0.3-4.1h2.9c0.1,0.8,0.2,1.8,0.3,2.9h0.1c1.1-2.3,3-3.4,5.8-3.4
			c0.2,0,0.5,0,1,0.1l-0.2,2.6c-0.2,0-0.6-0.1-1.1-0.1c-1.8,0-3.1,0.6-4,1.8c-0.9,1.2-1.4,2.7-1.4,4.6v9.8h-3.1V138.8z"/>
		<path class="st0" d="M395.1,134.2c1.2,0,2.2,0.2,3.3,0.5s2,0.8,2.8,1.5l-1.2,2.1c-1.4-1-3-1.5-4.9-1.5c-2,0-3.5,0.6-4.5,1.9
			s-1.5,3-1.5,5.2c0,2.1,0.5,3.8,1.5,5.1c1,1.3,2.5,2,4.4,2c1.7,0,3.3-0.5,4.9-1.5l1.1,2.2c-1.8,1.3-3.9,2-6.3,2
			c-2.1,0-3.8-0.5-5.1-1.4c-1.3-0.9-2.3-2.1-2.9-3.6s-0.9-3-0.9-4.7c0-2.9,0.8-5.3,2.4-7C390,135.1,392.3,134.2,395.1,134.2z"/>
		<path class="st0" d="M418.9,145h-13.6c0.1,1.9,0.7,3.4,1.7,4.5c1,1.1,2.4,1.7,4.3,1.7c1.1,0,2.1-0.1,3-0.4s1.8-0.8,2.6-1.4l1.4,2
			c-1,0.7-2.1,1.3-3.3,1.7s-2.5,0.6-3.9,0.6c-2.8,0-5-0.9-6.6-2.7c-1.6-1.8-2.4-4.1-2.4-7.1c0-1.9,0.3-3.6,1-5
			c0.7-1.4,1.7-2.6,2.9-3.4c1.3-0.8,2.8-1.2,4.6-1.2c2.7,0,4.7,0.9,6.1,2.6c1.4,1.7,2.1,4,2.1,6.9C419,144.3,419,144.7,418.9,145z
			 M416,142.6c0-1.8-0.5-3.3-1.4-4.4c-0.9-1.1-2.2-1.7-3.9-1.7c-1.7,0-3,0.6-4,1.7c-0.9,1.1-1.4,2.6-1.5,4.3H416z"/>
		<path class="st0" d="M451.3,130.1l-1.9,2.1c-0.9-0.8-1.9-1.4-3-1.8c-1.1-0.4-2.3-0.6-3.6-0.6c-3.1,0-5.5,1-7.1,2.9
			c-1.6,1.9-2.4,4.5-2.4,7.7c0,3.2,0.8,5.7,2.4,7.7c1.6,1.9,3.9,2.9,7,2.9c1.4,0,2.7-0.3,3.9-0.8c1.2-0.5,2.3-1.2,3.2-2.1l1.9,2.1
			c-1.1,1.1-2.4,2-4,2.6c-1.6,0.6-3.3,1-5.1,1c-2.7,0-4.9-0.6-6.8-1.7s-3.3-2.7-4.3-4.7c-1-2-1.5-4.3-1.5-7c0-2.6,0.5-5,1.5-7
			c1-2,2.4-3.6,4.3-4.7c1.9-1.1,4.2-1.7,6.9-1.7c1.7,0,3.3,0.3,4.8,0.8C448.9,128.3,450.2,129.1,451.3,130.1z"/>
		<path class="st0" d="M471.3,143.8c0,1.9-0.4,3.6-1.1,5.1c-0.7,1.5-1.8,2.6-3.2,3.4s-3,1.2-4.9,1.2c-1.9,0-3.5-0.4-4.9-1.2
			s-2.4-2-3.2-3.4s-1.1-3.1-1.1-5c0-2.9,0.8-5.3,2.4-7c1.6-1.7,3.9-2.6,6.8-2.6c1.9,0,3.6,0.4,5,1.2c1.4,0.8,2.4,1.9,3.2,3.4
			C470.9,140.2,471.3,141.9,471.3,143.8z M456,143.8c0,2.2,0.5,3.9,1.5,5.3s2.5,2,4.5,2c2,0,3.6-0.7,4.6-2s1.5-3.1,1.5-5.3
			s-0.5-3.9-1.5-5.2c-1-1.3-2.5-1.9-4.6-1.9c-2,0-3.6,0.6-4.5,1.9C456.5,139.9,456,141.7,456,143.8z"/>
		<path class="st0" d="M474.7,138.8c0-1.3-0.1-2.7-0.3-4.1h2.9c0.1,0.6,0.2,1.5,0.3,2.6h0.1c0.6-0.9,1.4-1.7,2.4-2.2
			s2.2-0.9,3.6-0.9c1.6,0,2.8,0.3,3.8,1c1,0.7,1.7,1.6,2.2,2.7h0.1c0.6-1.2,1.5-2.1,2.6-2.7s2.4-1,3.9-1s2.8,0.3,3.8,1
			s1.8,1.5,2.2,2.6c0.5,1.1,0.7,2.2,0.7,3.5v11.7h-3.1v-11.3c0-1.4-0.3-2.6-1-3.6c-0.7-1-1.8-1.4-3.3-1.4c-1.1,0-2.1,0.3-2.8,0.9
			c-0.8,0.6-1.4,1.3-1.8,2.3s-0.6,2-0.6,3.1v10h-3.1v-11.4c0-1.4-0.3-2.6-1-3.5c-0.7-0.9-1.8-1.4-3.3-1.4c-1.6,0-2.8,0.6-3.8,1.7
			c-0.9,1.1-1.4,2.5-1.4,4.1v10.5h-3.1V138.8z"/>
		<path class="st0" d="M524.8,143.9c0,1.8-0.3,3.5-1,4.9s-1.7,2.6-2.9,3.5s-2.8,1.3-4.5,1.3c-2.3,0-4.3-0.8-6-2.3v10.5h-3.1v-23
			c0-1.3-0.1-2.7-0.3-4.1h2.9c0.1,0.8,0.2,1.7,0.3,2.8h0.1c0.6-1,1.4-1.8,2.5-2.4c1.1-0.6,2.4-0.9,4-0.9c1.8,0,3.2,0.4,4.4,1.3
			c1.2,0.9,2.1,2,2.7,3.5S524.8,142.1,524.8,143.9z M521.6,143.9c0-2.2-0.5-4-1.5-5.3c-1-1.3-2.3-1.9-4-1.9c-1.1,0-2.1,0.3-3,0.8
			c-0.9,0.5-1.6,1.2-2.1,2.2c-0.5,0.9-0.7,1.9-0.7,3v6.1c0.8,0.8,1.7,1.5,2.5,1.8s1.8,0.6,2.9,0.6c1.9,0,3.4-0.7,4.4-2
			S521.6,146,521.6,143.9z"/>
		<path class="st0" d="M526.9,148.1c0-2.4,0.9-4,2.6-5s4.3-1.4,7.8-1.4c0.8,0,1.5,0,1.9,0v-1c0-1.4-0.4-2.4-1.1-3.1
			c-0.7-0.7-1.9-1-3.4-1c-1.9,0-3.8,0.5-5.5,1.5l-1.1-2.1c2.1-1.3,4.3-1.9,6.8-1.9c2.6,0,4.4,0.6,5.6,1.8c1.2,1.2,1.8,3,1.8,5.5v7.5
			c0,1.3,0.1,2.7,0.3,4.1h-2.8c-0.2-1.1-0.3-1.9-0.3-2.5h-0.1c-0.7,1-1.5,1.7-2.5,2.2c-1,0.5-2.3,0.8-3.9,0.8
			c-1.8,0-3.2-0.5-4.3-1.4S526.9,149.8,526.9,148.1z M539.1,146.3v-2.4l-1.6,0c-1.8,0-3.2,0.1-4.3,0.4c-1.1,0.2-1.9,0.6-2.4,1.2
			c-0.5,0.6-0.8,1.4-0.8,2.4c0,1.1,0.3,1.9,0.9,2.4c0.6,0.6,1.5,0.8,2.6,0.8c1.2,0,2.1-0.2,3-0.7c0.8-0.5,1.5-1.1,1.9-1.9
			C538.9,147.8,539.1,147.1,539.1,146.3z"/>
		<path class="st0" d="M546.5,138.8c0-1.3-0.1-2.7-0.3-4.1h2.9c0.1,0.6,0.2,1.5,0.3,2.6h0.1c0.6-0.9,1.4-1.7,2.5-2.2
			c1.1-0.6,2.4-0.8,3.9-0.8c2.3,0,4,0.7,5.1,2s1.7,3,1.7,5v11.8h-3.1v-11.2c0-1.5-0.4-2.7-1.1-3.6s-1.9-1.4-3.5-1.4
			c-1.7,0-3,0.5-4,1.6c-1,1.1-1.5,2.5-1.5,4.1v10.5h-3.1V138.8z"/>
		<path class="st0" d="M572.7,157.5c-0.6,1.7-1.3,2.9-2.2,3.6c-0.9,0.8-2.1,1.2-3.5,1.2c-0.9,0-1.8-0.1-2.6-0.4l0.6-2.3
			c0.5,0.1,1,0.2,1.5,0.2c0.9,0,1.6-0.3,2.1-0.8c0.5-0.5,0.9-1.3,1.3-2.3l1.3-3.6l-7.1-18.4h3.3l5.3,15.1h0.1l4.9-15.1h3.1
			L572.7,157.5z"/>
	</g>
	<g>
		<g>
			<g>
				<path class="st0" d="M92.3,64.8c6.8-4.2,17.6-7.2,34.4-9.2c21.7-2.6,20.8-20.3,14.6-28.3c-7.1-9.3-22.8-8.6-34.3-5.7
					c-7.8,2-13.7,4.9-18.3,8.3L88,34.4C86,46.6,87.4,56.3,92.3,64.8z"/>
				<path class="st0" d="M123.9,97.5C109,88.3,98,79.9,91.2,70.2c-0.3-0.4-0.6-0.8-0.8-1.2c-0.4-0.6-0.8-1.3-1.2-1.9
					c-5.4-9.2-7.1-19.7-4.9-33.3c-0.3,0.3-0.7,0.7-1,1.1c-0.1,0.1-0.2,0.2-0.3,0.4c-0.2,0.2-0.4,0.4-0.6,0.6
					c-0.1,0.1-0.1,0.2-0.2,0.2c-0.2,0.2-0.4,0.4-0.6,0.7c-2.6,3.3-6.8,9.2-10.1,17.7c-1.4,3.7-2.7,7.8-3.7,12.5
					c-0.7,3.7-7.1,37.6,20.6,58.5c9.6,7.3,20.9,11.3,31.4,8.6C130.5,131.2,143.1,109.3,123.9,97.5z"/>
				<path class="st0" d="M60.8,25.2L62,21c-2.1-3.6-5.2-7.4-9.7-11C45.2,4,34.2-1.7,26,2.5c-7.1,3.6-13.7,15.9,0.9,25
					c10.8,6.8,17.4,12.3,20.9,17.4C54.1,40.6,58.2,34.3,60.8,25.2z"/>
				<g>
					<path class="st0" d="M65.4,29.3C65.4,29.3,65.4,29.2,65.4,29.3c0-0.1-0.1-0.2-0.1-0.3c0-0.1-0.1-0.2-0.1-0.4L63.6,29
						c-0.1,0.2-0.2,0.5-0.3,0.7c-3,8.5-7.5,14.3-13.6,18.5c-0.6,0.4-1.3,0.8-1.9,1.2c-0.4,0.2-0.8,0.5-1.2,0.7
						c-8,4.4-18.4,6.5-31.8,8c-17.6,2-16,21.7-9.3,27.4c6.5,5.4,15.9,6.4,25.2,4.4C57.5,84.4,64.3,58.2,65,55.3
						c0.7-2.7,1.1-5.3,1.4-7.7C67.3,39.3,66.3,32.8,65.4,29.3z"/>
					<path class="st0" d="M65,27.7C65,27.7,65,27.7,65,27.7C65,27.7,65,27.7,65,27.7c0-0.1-0.1-0.3-0.1-0.4c0,0,0,0,0,0c0,0,0,0,0,0
						c-0.2-0.7-0.4-1.1-0.4-1.1l0,0c-0.1,0.5-0.3,0.9-0.4,1.3c0,0,0,0,0,0c0,0.1-0.1,0.3-0.1,0.4c0,0,0,0,0,0
						c-0.1,0.3-0.2,0.7-0.3,1l1.6-0.4C65.2,28.3,65.1,28,65,27.7z"/>
				</g>
			</g>
			<g>
				<path class="st0" d="M182.7,98.1c-13.2,0-23.5-9.8-23.5-22.7c0-12.5,10.2-22.4,23.1-22.4c9.7,0,18,5.4,21.4,14.1h-6.5
					c-3.3-5.7-8.6-8.7-15-8.7c-9.6,0-17.1,7.6-17.1,17.3c0,9.5,7.6,17.2,17.3,17.2c6.1,0,10.2-2.4,14.7-8.3h6.6
					C198.6,94.2,191.6,98.1,182.7,98.1z"/>
				<path class="st0" d="M211.8,97V38.8h5.8V97H211.8z"/>
				<path class="st0" d="M249,98.1c-13.4,0-23.1-9.6-23.1-22.8c0-12.6,9.8-22.3,22.6-22.3c12.9,0,22.4,9.5,22.4,22.7
					C270.9,88.5,261.6,98.1,249,98.1z M248.5,58.3c-9.5,0-16.7,7.3-16.7,17.1c0,10.1,7.1,17.3,17,17.3c9.4,0,16.1-7.2,16.1-17
					C265,65.7,258,58.3,248.5,58.3z"/>
				<path class="st0" d="M311.3,97v-6.7c-2.9,5.4-7.2,7.7-13.9,7.7c-10.9,0-18.3-5.8-18.3-20.9V54h5.8v23.2
					c0,10.9,4.6,15.5,12.9,15.5c7.9,0,13.4-4.9,13.4-16.6V54h5.8V97H311.3z"/>
				<path class="st0" d="M363.5,97v-7.8c-4.3,6.2-9.2,8.8-16.4,8.8c-13.3,0-23.5-9.8-23.5-22.5c0-12.8,9.9-22.6,22.9-22.6
					c6.8,0,12.7,2.8,16.9,7.9v-22h5.8V97H363.5z M346.4,58.3c-9.4,0-16.9,7.6-16.9,17c0,9.8,7.6,17.4,17.4,17.4
					c9.2,0,16.8-7.9,16.8-17.3C363.7,65.9,355.9,58.3,346.4,58.3z"/>
				<path class="st0" d="M400,97.5c-13.2,0-23.5-9.8-23.5-22.7c0-12.5,10.2-22.4,23.1-22.4c9.7,0,18,5.4,21.4,14.1h-6.5
					c-3.3-5.7-8.6-8.7-15-8.7c-9.6,0-17.1,7.6-17.1,17.3c0,9.5,7.6,17.2,17.3,17.2c6.1,0,10.2-2.4,14.7-8.3h6.6
					C415.9,93.6,408.9,97.5,400,97.5z"/>
				<path class="st0" d="M436.1,71.9V97h-5.8V54h5.8v6.1c2.3-4.7,6-6.9,12.2-7.2v5.8C440.2,59.5,436.1,63.9,436.1,71.9z"/>
				<path class="st0" d="M489.7,97v-7.6c-4.6,6.1-9.3,8.6-16.6,8.6c-13.2,0-23.1-9.6-23.1-22.4c0-12.9,9.8-22.7,22.7-22.7
					c7.5,0,12.8,2.7,17,8.7V54h5.8V97H489.7z M472.8,58.3c-9.4,0-16.9,7.6-16.9,16.9c0,9.8,7.5,17.5,17.3,17.5
					c9.3,0,16.5-7.6,16.5-17.4C489.7,65.7,482.3,58.3,472.8,58.3z"/>
				<path class="st0" d="M503.1,97v-5.3l23.8-32.5h-23V54h29.6v5L510,91.8h25V97H503.1z"/>
				<path class="st0" d="M545,77.4c0.5,8.5,8,15.3,16.8,15.3c6.5,0,12.6-3.9,15-9.8h6.1c-2.8,8.2-11.2,15.2-21,15.2
					c-12.8,0-22.8-10-22.8-22.8c0-12.5,9.8-22.4,22.4-22.4c12.8,0,22.4,9.2,22.4,24.5H545z M561.4,58.3c-8.2,0-14.7,5.6-16.3,13.9
					h33C576.2,63.6,569.8,58.3,561.4,58.3z"/>
			</g>
		</g>
		<g>
			<path class="st0" d="M586.4,58.9h-0.7v-4.6h-1.3v-0.6h3.3v0.6h-1.3V58.9z"/>
			<path class="st0" d="M589.1,58.9h-0.7v-5.2h0.6l1.9,3.9l1.9-3.9h0.6v5.2h-0.7v-3.8L591,59l-1.9-3.9V58.9z"/>
		</g>
	</g>
</g>
</svg>
