<!-- Generated by IcoMoon.io -->
<svg version="1.1" xmlns="http://www.w3.org/2000/svg" width="50" height="50" viewBox="0 0 50 50">
	<title>sfdc-icon-x</title>
	<path fill="#215ca0" d="M49.74 2.203l-1.977-1.977c-0.277-0.277-0.711-0.277-0.989 0l-21.297 21.315c-0.277 0.277-0.711 0.277-0.989 0l-21.315-21.315c-0.277-0.277-0.711-0.277-0.989 0l-1.977 1.977c-0.277 0.277-0.277 0.711 0 0.989l21.297 21.315c0.277 0.277 0.277 0.711 0 0.989l-21.297 21.297c-0.277 0.277-0.277 0.711 0 0.989l1.977 1.977c0.277 0.277 0.711 0.277 0.989 0l21.315-21.315c0.277-0.277 0.711-0.277 0.989 0l21.315 21.315c0.277 0.277 0.711 0.277 0.989 0l1.977-1.977c0.277-0.277 0.277-0.711 0-0.989l-21.315-21.297c-0.277-0.277-0.277-0.711 0-0.989l21.297-21.315c0.277-0.277 0.277-0.711 0-0.989z"></path>
</svg>
