<?xml version="1.0" encoding="utf-8"?>
<svg version="1.1" xmlns="http://www.w3.org/2000/svg" class="sprite">

	<symbol id="arrow-up" viewBox="0 0 50 50">
		<path d="M47.156 38.484l-21.748-21.766c-0.243-0.243-0.624-0.243-0.867 0l-21.748 21.766c-0.243 0.243-0.624 0.243-0.867 0l-1.734-1.734c-0.243-0.243-0.243-0.624 0-0.867l24.35-24.367c0.243-0.243 0.624-0.243 0.867 0l24.367 24.35c0.243 0.243 0.243 0.624 0 0.867l-1.734 1.734c-0.243 0.243-0.642 0.243-0.884 0.017z"></path>
	</symbol>

	<symbol id="arrow-right" viewBox="0 0 50 50">
		<path d="M11.516 47.138l21.696-21.696c0.243-0.243 0.243-0.624 0-0.867l-21.696-21.713c-0.243-0.243-0.243-0.624 0-0.867l1.734-1.734c0.243-0.243 0.624-0.243 0.867 0l24.298 24.298c0.243 0.243 0.243 0.624 0 0.867l-24.298 24.298c-0.243 0.243-0.624 0.243-0.867 0l-1.734-1.734c-0.225-0.225-0.225-0.624 0-0.85z"></path>
	</symbol>

	<symbol id="arrow-down" viewBox="0 0 50 50">
		<path d="M47.156 11.516l-21.748 21.748c-0.243 0.243-0.624 0.243-0.867 0l-21.748-21.748c-0.243-0.243-0.624-0.243-0.867 0l-1.734 1.734c-0.243 0.243-0.243 0.624 0 0.867l24.367 24.367c0.243 0.243 0.624 0.243 0.867 0l24.35-24.367c0.243-0.243 0.243-0.624 0-0.867l-1.734-1.734c-0.243-0.243-0.642-0.243-0.884 0z"></path>
	</symbol>

	<symbol id="arrow-left" viewBox="0 0 50 50">
		<path d="M38.45 47.138c0.225 0.225 0.225 0.624 0 0.85l-1.734 1.734c-0.243 0.243-0.624 0.243-0.867 0l-24.298-24.298c-0.243-0.243-0.243-0.624 0-0.867l24.298-24.298c0.243-0.243 0.624-0.243 0.867 0l1.734 1.734c0.243 0.243 0.243 0.624 0 0.867l-21.696 21.713c-0.243 0.243-0.243 0.624 0 0.867l21.696 21.696z"></path>
	</symbol>

	<symbol id="hamburger" viewBox="0 0 50 50">
		<path d="M0 4.977h49.948v9.244h-49.948v-9.244z"></path>
		<path d="M0 20.378h49.948v9.244h-49.948v-9.244z"></path>
		<path d="M0 35.779h49.948v9.244h-49.948v-9.244z"></path>
	</symbol>

	<symbol id="search" viewBox="0 0 50 50">
		<path d="M35.38 31.061l14.62 14.62-4.318 4.318-14.62-14.62c-8.741 6.348-20.968 4.422-27.315-4.318s-4.422-20.968 4.318-27.315 20.968-4.422 27.315 4.318c4.977 6.85 4.977 16.129 0 22.997zM19.563 33.004c7.423 0 13.441-6.018 13.441-13.441s-6.018-13.441-13.441-13.441-13.458 6.018-13.458 13.441 6.035 13.441 13.458 13.441z"></path>
	</symbol>

	<symbol id="play-only" viewBox="0 0 50 50">
		<path d="M24.688 12.5l21.875 12.5-43.125 25v-50z"></path>
	</symbol>

	<symbol id="play" viewBox="0 0 50 50">
		<path d="M25 0c-13.833 0-25 11.167-25 25s11.167 25 25 25 25-11.167 25-25-11.167-25-25-25zM25 47.5c-12.417 0-22.5-10.083-22.5-22.5s10.083-22.5 22.5-22.5 22.5 10.083 22.5 22.5-10.083 22.5-22.5 22.5zM27.583 20.75l7.417 4.25-14.667 8.5v-17l7.25 4.25z"></path>
	</symbol>

	<symbol id="video" viewBox="0 0 50 50">
		<path d="M25 0c-13.833 0-25 11.167-25 25s11.167 25 25 25 25-11.167 25-25-11.167-25-25-25zM25 47.5c-12.417 0-22.5-10.083-22.5-22.5s10.083-22.5 22.5-22.5 22.5 10.083 22.5 22.5-10.083 22.5-22.5 22.5zM27.583 20.75l7.417 4.25-14.667 8.5v-17l7.25 4.25z"></path>
	</symbol>

	<symbol id="plus" viewBox="0 0 50 50">
		<path d="M46.618 21.661h-18.314v-18.297c0-1.838-1.492-3.33-3.33-3.33s-3.33 1.492-3.33 3.33v18.297h-18.314c-1.838 0-3.33 1.492-3.33 3.33s1.492 3.33 3.33 3.33h18.297v18.297c0 1.838 1.492 3.33 3.33 3.33s3.33-1.492 3.33-3.33v-18.28h18.297c1.838 0 3.33-1.492 3.33-3.33s-1.457-3.347-3.295-3.347z"></path>
	</symbol>

	<symbol id="phone" viewBox="0 0 50 50">
		<path d="M48.474 37.374l-6.33-5.099c-1.457-1.145-3.538-1.249-4.977-0.104l-5.394 3.954c-0.624 0.52-1.561 0.416-2.185-0.208l-8.099-7.301-7.267-8.117c-0.624-0.624-0.624-1.457-0.208-2.185l3.937-5.411c1.145-1.457 1.041-3.538-0.104-4.995l-5.081-6.382c-1.561-1.873-4.353-2.081-6.122-0.312l-5.394 5.428c-0.815 0.832-1.266 1.96-1.249 3.122 0.52 10.631 5.29 20.742 12.348 27.818 7.059 7.093 17.118 11.88 27.714 12.4 1.145 0.104 2.289-0.416 3.104-1.249l5.394-5.428c1.613-1.266 1.908-3.607 0.642-5.22-0.208-0.26-0.451-0.503-0.728-0.711z"></path>
	</symbol>



	<symbol id="share" viewBox="0 0 50 50">
		<path d="M43.184 49.983h-42.664c-0.295 0-0.52-0.225-0.52-0.52v-42.664c0-0.295 0.225-0.52 0.52-0.52h20.846c0.295 0 0.52 0.225 0.52 0.52v2.064c0 0.295-0.225 0.52-0.52 0.52h-17.707c-0.295 0-0.52 0.225-0.52 0.52v36.438c0 0.295 0.225 0.52 0.52 0.52h36.403c0.295 0 0.52-0.225 0.52-0.52v-17.69c0-0.295 0.225-0.52 0.52-0.52h2.081c0.295 0 0.52 0.225 0.52 0.52v20.812c0 0.295-0.243 0.52-0.52 0.52z"></path>
		<path d="M31.217 0.555v2.081c0 0.295 0.225 0.52 0.52 0.52h11.62c0.468 0 0.694 0.555 0.364 0.884l-22.615 22.615c-0.208 0.208-0.208 0.538 0 0.728l1.474 1.474c0.208 0.208 0.538 0.208 0.728 0l22.633-22.581c0.33-0.33 0.884-0.104 0.884 0.364v11.62c0 0.295 0.225 0.52 0.52 0.52h2.081c0.295 0 0.52-0.225 0.52-0.52v-17.707c0-0.295-0.225-0.52-0.52-0.52h-17.69c-0.295 0-0.52 0.243-0.52 0.52z"></path>
	</symbol>

	<symbol id="Facebook" viewBox="0 0 50 50">
		<path d="M37.895 8.325h-4.717c-3.694 0-4.388 1.752-4.388 4.318v5.671h8.81l-1.127 8.88h-7.631v22.806h-9.174v-22.823h-7.666v-8.88h7.666v-6.538c0-7.596 4.648-11.724 11.429-11.724 3.26 0 6.035 0.26 6.868 0.364v7.926h-0.069z"></path>
	</symbol>

	<symbol id="google" viewBox="0 0 50 50">
		<path d="M15.886 40.895c-8.793 0-15.886-7.111-15.886-15.886 0-8.793 7.111-15.886 15.886-15.886 4.301 0 7.856 1.578 10.649 4.162l-4.318 4.162c-1.179-1.127-3.26-2.445-6.313-2.445-5.411 0-9.851 4.492-9.851 10.024s4.44 10.024 9.851 10.024c6.296 0 8.654-4.527 9.018-6.85h-9.018v-5.446h14.984c0.139 0.78 0.26 1.596 0.26 2.636 0.017 9.036-6.070 15.505-15.262 15.505zM49.948 27.281h-4.544v4.544h-4.544v-4.544h-4.544v-4.544h4.544v-4.544h4.544v4.544h4.544v4.544z"></path>
	</symbol>

	<symbol id="instagram" viewBox="0 0 50 50">
		<path d="M41.311 11.637c0 1.657-1.343 3-3 3s-3-1.343-3-3c0-1.657 1.343-3 3-3s3 1.343 3 3z"></path>
		<path d="M24.974 12.157c-7.076 0-12.817 5.741-12.817 12.817s5.741 12.817 12.817 12.817c7.076 0 12.817-5.741 12.817-12.817s-5.741-12.817-12.817-12.817zM24.974 33.299c-4.596 0-8.325-3.729-8.325-8.325s3.729-8.325 8.325-8.325c4.596 0 8.325 3.729 8.325 8.325s-3.729 8.325-8.325 8.325z"></path>
		<path d="M49.792 14.672c-0.121-2.653-0.538-4.475-1.162-6.070-0.642-1.648-1.492-3.035-2.879-4.422s-2.775-2.237-4.422-2.879c-1.596-0.624-3.399-1.041-6.070-1.162-2.532-0.121-3.434-0.139-9.365-0.156h-1.873c-5.931 0-6.833 0.035-9.365 0.156-2.636 0.139-4.457 0.555-6.035 1.179-1.648 0.642-3.035 1.492-4.422 2.879s-2.237 2.775-2.879 4.422c-0.624 1.596-1.041 3.399-1.162 6.070-0.121 2.653-0.156 3.503-0.156 10.284s0.035 7.631 0.156 10.302c0.121 2.653 0.538 4.475 1.162 6.070 0.642 1.648 1.492 3.035 2.879 4.422s2.775 2.237 4.422 2.879c1.596 0.624 3.399 1.041 6.070 1.162s3.521 0.156 10.302 0.156c6.781 0 7.631-0.035 10.302-0.156 2.653-0.121 4.475-0.538 6.070-1.162 1.648-0.642 3.035-1.492 4.422-2.879s2.237-2.775 2.879-4.422c0.624-1.596 1.041-3.399 1.162-6.070 0.121-2.567 0.156-3.451 0.156-9.625v-1.335c-0.035-6.174-0.069-7.059-0.191-9.643zM45.3 35.068c-0.104 2.428-0.52 3.763-0.867 4.631-0.451 1.162-0.989 1.994-1.873 2.879-0.867 0.867-1.7 1.422-2.879 1.873-0.884 0.347-2.203 0.746-4.631 0.867-2.636 0.121-3.417 0.139-10.094 0.139s-7.458-0.017-10.094-0.139c-2.428-0.104-3.763-0.52-4.631-0.867-1.162-0.451-1.994-0.989-2.879-1.873-0.867-0.867-1.422-1.7-1.873-2.879-0.347-0.884-0.746-2.203-0.867-4.631-0.121-2.636-0.139-3.417-0.139-10.094 0-6.66 0.017-7.458 0.139-10.094 0.104-2.428 0.52-3.763 0.867-4.631 0.451-1.162 0.989-1.994 1.873-2.879 0.867-0.867 1.7-1.422 2.879-1.873 0.884-0.347 2.203-0.746 4.631-0.867 2.636-0.121 3.417-0.139 10.094-0.139 6.66 0 7.458 0.017 10.094 0.139 2.428 0.104 3.763 0.52 4.631 0.867 1.162 0.451 1.994 0.989 2.879 1.873 0.867 0.867 1.422 1.7 1.873 2.879 0.347 0.884 0.746 2.203 0.867 4.631 0.121 2.636 0.139 3.417 0.139 10.094 0.017 6.66-0.017 7.458-0.139 10.094z"></path>
	</symbol>

	<symbol id="LinkedIn" viewBox="0 0 50 50">
		<path d="M10.718 48.006h-10.718v-31.911h10.718v31.911zM5.446 12.47c-2.948 0-5.255-2.307-5.255-5.255s2.307-5.255 5.255-5.255c2.948 0 5.255 2.307 5.255 5.255 0.017 2.948-2.307 5.255-5.255 5.255zM49.948 48.006h-10.302v-15.123c0-3.59 0-8.169-5.255-8.169s-6.087 3.989-6.087 7.995v15.349h-10.302v-31.911h9.851v5.047h0.225c1.457-2.532 4.631-5.047 9.66-5.047 10.302 0 12.175 6.504 12.175 14.898v16.979h0.035z"></path>
	</symbol>

	<symbol id="Twitter" viewBox="0 0 50 50">
		<path d="M44.832 14.811c0.017 0.434 0.035 0.884 0.035 1.335 0 13.528-10.319 29.154-29.154 29.154-5.793 0-11.169-1.7-15.713-4.596 0.798 0.104 1.613 0.139 2.445 0.139 4.804 0 9.227-1.648 12.73-4.388-4.492-0.087-8.273-3.052-9.573-7.111 0.624 0.121 1.266 0.191 1.925 0.191 0.937 0 1.838-0.121 2.706-0.364-4.683-0.954-8.221-5.081-8.221-10.042 0-0.052 0-0.087 0-0.139 1.37 0.763 2.966 1.231 4.631 1.283-2.74-1.856-4.561-4.995-4.561-8.55 0-1.873 0.503-3.642 1.387-5.151 5.047 6.191 12.608 10.284 21.124 10.701-0.173-0.763-0.26-1.544-0.26-2.341 0-5.671 4.579-10.25 10.25-10.25 2.948 0 5.602 1.249 7.475 3.243 2.341-0.468 4.527-1.318 6.504-2.48-0.763 2.393-2.393 4.405-4.509 5.671 2.081-0.243 4.041-0.798 5.897-1.613-1.37 2.064-3.122 3.867-5.116 5.307v0z"></path>

	</symbol>

	<symbol id="youtube" viewBox="0 0 50 50">
		<path d="M49.445 15.002c0 0-0.486-3.434-1.977-4.96-1.908-1.994-4.024-1.994-5.012-2.116-6.989-0.503-17.482-0.503-17.482-0.503h-0.017c0 0-10.493 0-17.482 0.503-0.971 0.121-3.104 0.121-5.012 2.116-1.474 1.526-1.96 4.96-1.96 4.96s-0.503 4.041-0.503 8.099v3.781c0 4.041 0.503 8.082 0.503 8.082s0.486 3.434 1.977 4.96c1.908 1.994 4.388 1.925 5.515 2.133 3.989 0.382 16.979 0.503 16.979 0.503s10.493-0.017 17.482-0.52c0.971-0.121 3.104-0.121 5.012-2.116 1.492-1.509 1.977-4.96 1.977-4.96s0.503-4.041 0.503-8.082v-3.781c0-4.058-0.503-8.099-0.503-8.099zM19.823 31.478v-14.031l13.493 7.041-13.493 6.989z"></path>

	</symbol>

	<symbol id="whitepaper" viewBox="0 0 50 50">
		<path d="M33.68 0.017h-27.662c-0.26 0-0.468 0.208-0.468 0.468v49.029c0 0.26 0.208 0.468 0.468 0.468h37.929c0.26 0 0.468-0.208 0.468-0.468v-38.779c0-0.121-0.052-0.243-0.139-0.33l-10.267-10.25c-0.087-0.087-0.208-0.139-0.33-0.139zM34.096 4.162l6.174 6.174c0.295 0.295 0.087 0.798-0.33 0.798h-6.174c-0.26 0-0.468-0.208-0.468-0.468v-6.174c0-0.416 0.503-0.624 0.798-0.33zM41.155 47.19h-32.362c-0.26 0-0.468-0.208-0.468-0.468v-43.462c0-0.26 0.208-0.468 0.468-0.468h21.28c0.26 0 0.468 0.208 0.468 0.468v10.18c0 0.26 0.208 0.468 0.468 0.468h10.18c0.26 0 0.468 0.208 0.468 0.468v32.379c-0.035 0.225-0.243 0.434-0.503 0.434z"></path>
	</symbol>


	<symbol id="x" viewBox="0 0 50 50">
		<path d="M49.74 2.203l-1.977-1.977c-0.277-0.277-0.711-0.277-0.989 0l-21.297 21.315c-0.277 0.277-0.711 0.277-0.989 0l-21.315-21.315c-0.277-0.277-0.711-0.277-0.989 0l-1.977 1.977c-0.277 0.277-0.277 0.711 0 0.989l21.297 21.315c0.277 0.277 0.277 0.711 0 0.989l-21.297 21.297c-0.277 0.277-0.277 0.711 0 0.989l1.977 1.977c0.277 0.277 0.711 0.277 0.989 0l21.315-21.315c0.277-0.277 0.711-0.277 0.989 0l21.315 21.315c0.277 0.277 0.711 0.277 0.989 0l1.977-1.977c0.277-0.277 0.277-0.711 0-0.989l-21.315-21.297c-0.277-0.277-0.277-0.711 0-0.989l21.297-21.315c0.277-0.277 0.277-0.711 0-0.989z"></path>
	</symbol>



	<!-- resource type icons -->

	<symbol id="case-study" viewBox="0 0 17.88 17">
		<path class="case-study" d="M14.69,13.83l-4.36-4.6a4.54,4.54,0,1,0-.75.75l4.34,4.58a.53.53,0,1,0,.77-.73ZM7.28,10.16A3.79,3.79,0,1,1,10.52,5.9,3.79,3.79,0,0,1,7.28,10.16Z"/>
	</symbol>

	<symbol id="download" viewBox="0 0 17.88 17">
		<path class="download" d="M14.1.76H5.88a.5.5,0,0,0-.37.17l0,0L2.69,3.73a.5.5,0,0,0-.15.36.47.47,0,0,0,0,.07V14.85a.5.5,0,0,0,.5.5H14.1a.5.5,0,0,0,.5-.5V1.27A.5.5,0,0,0,14.1.76ZM5.38,2.47V3.65H4.19ZM13.6,14.35H3.53V4.66H5.88a.5.5,0,0,0,.5-.5V1.77H13.6Z"/><path class="cls-1" d="M11.2,8.78a.68.68,0,0,0-1,.07c-.3.3-1,.94-1,.94s0-3.07,0-3.93a.72.72,0,0,0-.44-.74.73.73,0,0,0-.22,0h0a.73.73,0,0,0-.22,0,.72.72,0,0,0-.44.74c0,.86,0,3.84,0,3.93s-.67-.64-1-.94a.68.68,0,0,0-1-.07.67.67,0,0,0,.06,1L8,11.87a.76.76,0,0,0,.5.24h0a.76.76,0,0,0,.5-.24l2.09-2.09A.67.67,0,0,0,11.2,8.78Z"/>
	</symbol>

	<symbol id="ebook" viewBox="0 0 17.88 17">
		<path class="ebook" d="M12.9,1.33H4.22A1.29,1.29,0,0,0,2.93,2.61V14.8a1.29,1.29,0,0,0,1.29,1.29H12.9a1.29,1.29,0,0,0,1.29-1.29V2.61A1.29,1.29,0,0,0,12.9,1.33Zm-8.69.89H12.9a.4.4,0,0,1,.4.4v9.94H3.82V2.61A.4.4,0,0,1,4.22,2.22Zm8.69,13H4.22a.4.4,0,0,1-.4-.4V13.44H13.3V14.8A.4.4,0,0,1,12.9,15.2Z"/>
	</symbol>

	<symbol id="news" viewBox="0 0 17.88 17">
		<path class="news" d="M8.62,1.13A6.87,6.87,0,1,0,15.49,8,6.88,6.88,0,0,0,8.62,1.13ZM2.52,8.39H4.34a10.39,10.39,0,0,0,.43,2.68H3.34A6.06,6.06,0,0,1,2.52,8.39ZM9,4.2V1.92A3.63,3.63,0,0,1,11.39,4.2ZM11.68,5a9.55,9.55,0,0,1,.46,2.68H9V5Zm-3.47-3V4.2H5.85A3.66,3.66,0,0,1,8.22,1.93Zm0,3V7.64H5.09A9.55,9.55,0,0,1,5.56,5ZM4.34,7.64H2.52A6.07,6.07,0,0,1,3.32,5H4.76A10.42,10.42,0,0,0,4.34,7.64Zm.76.76H8.22v2.68H5.57A9.52,9.52,0,0,1,5.09,8.39Zm3.12,3.44v2.24a3.64,3.64,0,0,1-2.35-2.24ZM9,14.08V11.83h2.4A3.61,3.61,0,0,1,9,14.08Zm0-3V8.39h3.17a9.52,9.52,0,0,1-.47,2.68ZM12.9,8.39h1.81a6.06,6.06,0,0,1-.82,2.68H12.47A10.39,10.39,0,0,0,12.9,8.39Zm0-.76A10.42,10.42,0,0,0,12.48,5h1.44a6.07,6.07,0,0,1,.8,2.68Zm.5-3.44H12.22a6.42,6.42,0,0,0-1-1.75A6.14,6.14,0,0,1,13.4,4.2ZM6.07,2.45A6.42,6.42,0,0,0,5,4.2H3.84A6.14,6.14,0,0,1,6.07,2.45ZM3.86,11.83H5a6.39,6.39,0,0,0,1,1.72A6.15,6.15,0,0,1,3.86,11.83Zm7.31,1.72a6.39,6.39,0,0,0,1-1.72h1.18A6.14,6.14,0,0,1,11.18,13.55Z"/>
	</symbol>

	<symbol id="presentation" viewBox="0 0 17.88 17">
		<path class="presentation" d="M16.66,12.13H15.38V3.58a.47.47,0,0,0-.47-.47H3.12a.47.47,0,0,0-.47.47v8.54H1.36a.47.47,0,0,0,0,.94H16.66a.47.47,0,0,0,0-.94ZM3.59,4.06H14.43v8.07H11.68v-6a.47.47,0,1,0-.94,0v6H9.48V7.62a.47.47,0,1,0-.94,0v4.51H7.28v-3a.47.47,0,1,0-.94,0v3H3.59Z"/>
	</symbol>

	<symbol id="press-release" viewBox="0 0 17.88 17">
		<path class="press-release" d="M13.78,1.69H6.24a.46.46,0,0,0-.33.13v0l0,0L3.31,4.41a.46.46,0,0,0-.13.33.43.43,0,0,0,0,.06v9.81a.46.46,0,0,0,.46.46H13.78a.46.46,0,0,0,.46-.46V2.15A.46.46,0,0,0,13.78,1.69Zm-8,1.56V4.34H4.68Zm7.54,10.9H4.08V5.26H6.24a.46.46,0,0,0,.46-.46V2.61h6.62Z"/>
		<path class="press-release" d="M5,7.6a.46.46,0,0,0,.46.46h6.49a.46.46,0,0,0,0-.92H5.45A.46.46,0,0,0,5,7.6Z"/>
		<path class="press-release" d="M11.95,9.23H5.45a.46.46,0,0,0,0,.92h6.49a.46.46,0,0,0,0-.92Z"/>
		<path class="press-release" d="M11.95,11.32H5.45a.46.46,0,0,0,0,.92h6.49a.46.46,0,0,0,0-.92Z"/>
	</symbol>

	<symbol id="video-webinar" viewBox="0 0 17.88 17">
		<path class="video-webinar" d="M8.94,1.28a6.87,6.87,0,1,0,6.87,6.87h0A6.88,6.88,0,0,0,8.94,1.28ZM2.84,8.54H4.66a10.39,10.39,0,0,0,.43,2.68H3.66A6.06,6.06,0,0,1,2.84,8.54ZM9.32,4.35V2.07a3.63,3.63,0,0,1,2.39,2.28Zm2.68.8a9.55,9.55,0,0,1,.46,2.68H9.32V5.15Zm-3.47-3v2.2H6.17A3.66,3.66,0,0,1,8.54,2.08Zm0,3V7.79H5.41a9.55,9.55,0,0,1,.47-2.64ZM4.66,7.79H2.84a6.07,6.07,0,0,1,.8-2.64H5.08A10.42,10.42,0,0,0,4.66,7.79Zm.76.76H8.54v2.68H5.89a9.52,9.52,0,0,1-.48-2.69ZM8.54,12v2.24A3.64,3.64,0,0,1,6.19,12Zm.78,2.24V12h2.4A3.61,3.61,0,0,1,9.32,14.23Zm0-3V8.54h3.17A9.52,9.52,0,0,1,12,11.22Zm3.9-2.69H15a6.06,6.06,0,0,1-.82,2.68H12.79A10.39,10.39,0,0,0,13.22,8.54Zm0-.76a10.42,10.42,0,0,0-.42-2.63h1.44A6.07,6.07,0,0,1,15,7.83Zm.5-3.44H12.54a6.42,6.42,0,0,0-1-1.75,6.14,6.14,0,0,1,2.18,1.76ZM6.39,2.6A6.42,6.42,0,0,0,5.32,4.35H4.16A6.14,6.14,0,0,1,6.39,2.6ZM4.18,12H5.32a6.39,6.39,0,0,0,1,1.72A6.15,6.15,0,0,1,4.18,12Zm7.31,1.72a6.39,6.39,0,0,0,1-1.72h1.18A6.14,6.14,0,0,1,11.5,13.7Z"/>
	</symbol>

	<symbol id="webinar" viewBox="0 0 17.88 17">
		<path class="webinar" d="M16.66,12.36H15.38V3.82a.47.47,0,0,0-.47-.47H3.12a.47.47,0,0,0-.47.47v8.54H1.37a.47.47,0,0,0,0,.94H16.66a.47.47,0,0,0,0-.94ZM3.6,4.29H14.44v8.07H3.6Z"/>
	</symbol>

	<!-- ROI CALCULATOR ICONS -->

	<symbol id="consumer-package-goods" viewBox="0 0 72 72">
		<style>.cls-1{fill:#215ca0;}.cls-2{fill:#fff;}</style><g id="Blue_Cirlces" data-name="Blue Cirlces">
		<circle class="cls-1" style="fill:#215ca0;" cx="36" cy="36" r="36"/></g><g id="Expanded"><path class="cls-2" style="fill:#ffffff;" d="M51.27,26l-3.09-1.73V21.07a2.41,2.41,0,0,0-2.41-2.4h-3a2.41,2.41,0,0,0-2.41,2.4v3.16L37.25,26a3.09,3.09,0,0,0-1.49,2.55v2.75h-4L32.14,28a1.05,1.05,0,0,0-.26-.87,1.1,1.1,0,0,0-.83-.38H18.75a1.1,1.1,0,0,0-.83.38,1.09,1.09,0,0,0-.26.87l2.73,20.66a1.1,1.1,0,0,0,1.09,1h4.43v3.26A1.1,1.1,0,0,0,27,54H40.64a1.1,1.1,0,0,0,1.1-1.1V50.72h8.69a2.34,2.34,0,0,0,2.34-2.33V28.51A3.1,3.1,0,0,0,51.27,26Zm-21.47,3-.31,2.32H27a1.1,1.1,0,0,0-1.1,1.1v9.39H21.7L20,28.94ZM22.45,47.4,22,44h3.92V47.4Zm17.09,4.36H28.11V33.46H39.54Zm11-3.37a.13.13,0,0,1-.14.13H41.74V32.36a1.1,1.1,0,0,0-1.1-1.1H38V28.51a.93.93,0,0,1,.36-.63l3.66-2a1.12,1.12,0,0,0,.57-1v-3.8a.21.21,0,0,1,.21-.2h3a.21.21,0,0,1,.21.2v3.81a1.12,1.12,0,0,0,.56,1l3.66,2a.94.94,0,0,1,.37.63Z"/></g>
	</symbol>

	<symbol id="distribution" viewBox="0 0 72 72">
		<g id="Blue_Cirlces" data-name="Blue Cirlces"><circle class="cls-1" style="fill:#215ca0;" cx="36" cy="36" r="36"/></g><g id="Expanded"><path class="cls-2" style="fill:#ffffff;" d="M48.34,41.34a1.1,1.1,0,0,0-.75-2.07l-1.5.55L42.6,30.28a1.15,1.15,0,0,0-.57-.62,1.11,1.11,0,0,0-.84,0l-9.88,3.61L27.24,22.13a1.1,1.1,0,0,0-1.4-.66l-3.52,1.25a1.1,1.1,0,0,0,.74,2.08l2.49-.89L29.62,35h0L33.5,45.6a1.08,1.08,0,0,0,1,.72,1.31,1.31,0,0,0,.38-.06Zm-7.43-9.27,1.15,3.14-8.84,3.24-1.15-3.14ZM34,40.51l8.85-3.23,1.2,3.3-8.84,3.23Z"/><path class="cls-2" style="fill:#ffffff;" d="M41.08,49a3.26,3.26,0,0,0-6-.25A3.21,3.21,0,0,0,35,51.24a3.25,3.25,0,0,0,1.69,1.84,3.32,3.32,0,0,0,1.37.3,3.17,3.17,0,0,0,1.13-.2A3.27,3.27,0,0,0,41.08,49ZM39,50.57a1.05,1.05,0,0,1-1.41.51,1,1,0,0,1-.55-.6,1,1,0,0,1,0-.81,1.11,1.11,0,0,1,.6-.55,1.15,1.15,0,0,1,.37-.06,1,1,0,0,1,.44.1,1,1,0,0,1,.55.6A1,1,0,0,1,39,50.57Z"/><path class="cls-2" style="fill:#ffffff;" d="M49.53,45.91a3.26,3.26,0,1,0-6.12,2.24A3.2,3.2,0,0,0,45.1,50a3.12,3.12,0,0,0,1.37.31,3.39,3.39,0,0,0,1.12-.2,3.25,3.25,0,0,0,1.94-4.18Zm-2.1,1.56a1,1,0,0,1-.6.55,1.06,1.06,0,0,1-1.36-.63,1,1,0,0,1,0-.81A1.06,1.06,0,0,1,46.1,46a1.19,1.19,0,0,1,.37-.06,1,1,0,0,1,1,.69h0A1,1,0,0,1,47.43,47.47Z"/></g>
	</symbol>

	<symbol id="life-sciences" viewBox="0 0 72 72">
		<g id="Blue_Cirlces" data-name="Blue Cirlces"><circle class="cls-1" style="fill:#215ca0;" cx="36" cy="36" r="36"/><rect class="cls-1" style="fill:#215ca0;" x="40.68" y="21" width="11.32" height="4.1"/><rect class="cls-1" style="fill:#215ca0;" x="20.69" y="21.1" width="11.32" height="4.1"/></g><g id="Expanded"><path class="cls-2" style="fill:#ffffff;" d="M47.07,44.3,40.46,31.92V21.05a1.1,1.1,0,0,0-1.1-1.1H32.64a1.1,1.1,0,0,0-1.1,1.1V31.92L24.93,44.3a2.84,2.84,0,0,0,2.51,4.18H44.56a2.84,2.84,0,0,0,2.51-4.18ZM38.26,22.15v5H33.74v-5ZM45.11,46a.61.61,0,0,1-.55.31H27.44a.61.61,0,0,1-.55-.31.64.64,0,0,1,0-.64l6.74-12.62a1,1,0,0,0,.13-.51V29.36h4.52V32.2a1,1,0,0,0,.13.51l6.74,12.62A.64.64,0,0,1,45.11,46Z"/></g>
	</symbol>

	<symbol id="manufacturing" viewBox="0 0 72 72">
		<g id="Blue_Cirlces" data-name="Blue Cirlces"><circle class="cls-1" style="fill:#215ca0;" cx="36" cy="36" r="36"/></g><g id="Expanded"><path class="cls-2" style="fill:#ffffff;" d="M51.71,33.3a1.38,1.38,0,0,0-1.36-.06l-5.7,2.82V34.49a1.39,1.39,0,0,0-2-1.25l-5.69,2.82V34.49a1.4,1.4,0,0,0-.66-1.19,1.38,1.38,0,0,0-1.36-.06l-5,2.49-4.1-12.2a1.4,1.4,0,0,0-2.72.34L21.3,47.13a1.4,1.4,0,0,0,1.4,1.51H51a1.4,1.4,0,0,0,1.4-1.4V34.49A1.4,1.4,0,0,0,51.71,33.3ZM50.17,46.44H23.56L25,28l3.14,9.33a1.4,1.4,0,0,0,1.95.81l4.7-2.33v1.57a1.4,1.4,0,0,0,.66,1.19,1.38,1.38,0,0,0,1.36.06l5.69-2.82v1.57a1.4,1.4,0,0,0,2,1.25l2.34-1.16,3.35-1.66Z"/><circle class="cls-2" style="fill:#ffffff;" cx="35.29" cy="41.51" r="1.13"/><circle class="cls-2" style="fill:#ffffff;" cx="40.79" cy="41.51" r="1.13"/><circle class="cls-2" style="fill:#ffffff;" cx="46.29" cy="41.51" r="1.13"/></g>
	</symbol>

	<symbol id="software-media" viewBox="0 0 72 72">
		<g id="Blue_Cirlces" data-name="Blue Cirlces"><circle class="cls-1" style="fill:#215ca0;" cx="36" cy="36" r="36"/></g><g id="Expanded"><path class="cls-2" style="fill:#ffffff;" d="M51.8,23.91H20.2A1.1,1.1,0,0,0,19.1,25V46a1.1,1.1,0,0,0,1.1,1.1h9v2.24h-.61a1.1,1.1,0,1,0,0,2.2H43.39a1.1,1.1,0,0,0,0-2.2h-.61V47.09h9A1.1,1.1,0,0,0,52.9,46V25A1.1,1.1,0,0,0,51.8,23.91ZM40.58,49.33H31.42V47.09h9.16ZM50.7,44.89H21.3V26.11H50.7Z"/></g>
	</symbol>

	<symbol id="other" viewBox="0 0 72 72">
		<g id="Blue_Cirlces" data-name="Blue Cirlces"><circle class="cls-1" style="fill:#215ca0;" cx="36" cy="36" r="36"/></g><g id="Expanded"><path class="cls-2" style="fill:#ffffff;" d="M20.06,41.28A5.28,5.28,0,1,1,25.34,36,5.29,5.29,0,0,1,20.06,41.28Zm0-8.36A3.08,3.08,0,1,0,23.14,36,3.09,3.09,0,0,0,20.06,32.92Z"/><path class="cls-2" style="fill:#ffffff;" d="M36,41.28A5.28,5.28,0,1,1,41.28,36,5.29,5.29,0,0,1,36,41.28Zm0-8.36A3.08,3.08,0,1,0,39.08,36,3.08,3.08,0,0,0,36,32.92Z"/><path class="cls-2" style="fill:#ffffff;" d="M51.94,41.28A5.28,5.28,0,1,1,57.22,36,5.29,5.29,0,0,1,51.94,41.28Zm0-8.36A3.08,3.08,0,1,0,55,36,3.08,3.08,0,0,0,51.94,32.92Z"/></g>
	</symbol>


</svg>
